# xmcd
#
# Track frame offsets:
#	150
#	14110
#	32895
#	49972
#	70937
#	92237
#	108975
#	125992
#	144210
#	160570
#
# Disc length: 2368 seconds
#
# Revision: 1
# Processed by: cddbd v1.4PL0 Copyright (c) Steve Scherf et al.
# Submitted via: audiograbber 1.82.02
#
DISCID=8d093e0a
DTITLE=Peter Lewis Whitebird - Heavenly Country
DYEAR=1995
DGENRE=Christian Country
TTITLE0=I Can Hardly Wait
TTITLE1=Thorns and Nails
TTITLE2=He's Everything To Me
TTITLE3=Without His Love
TTITLE4=Christmas Memories
TTITLE5=He Can Lead Our Hearts To Water
TTITLE6=Waiting On A City
TTITLE7=I Was There In Him
TTITLE8=Count It All Joy
TTITLE9=Finally Home
EXTD=
EXTT0=
EXTT1=
EXTT2=
EXTT3=
EXTT4=
EXTT5=
EXTT6=
EXTT7=
EXTT8=
EXTT9=
PLAYORDER=
